
<svg width="162" height="46" xmlns="http://www.w3.org/2000/svg">
<g xmlns="http://www.w3.org/2000/svg" clip-path="url(#clip0_28_19643)">
<path d="M9.65478 34.1228L7.52663 34.5897C7.35176 34.1228 6.91447 33.8893 6.18563 33.8893C5.69003 33.8893 5.42768 34.0353 5.42768 34.3271C5.42768 34.5897 5.6609 34.7356 6.1565 34.8232C7.14765 34.9983 7.84736 35.1733 8.25547 35.3776C8.66363 35.5819 8.9843 35.8445 9.18836 36.1655C9.39241 36.4866 9.50903 36.8368 9.50903 37.2453C9.50903 37.9749 9.21748 38.5877 8.60532 39.0838C7.9931 39.5799 7.08939 39.8134 5.83583 39.8134C4.93208 39.8134 4.11582 39.6383 3.44531 39.2881C2.7748 38.9379 2.33751 38.3834 2.1626 37.683L4.40734 37.362C4.58226 37.8873 5.07784 38.1499 5.92327 38.1499C6.24394 38.1499 6.47718 38.0916 6.6521 38.004C6.79785 37.9165 6.88529 37.7998 6.88529 37.683C6.88529 37.5663 6.82698 37.4788 6.73954 37.4204C6.62292 37.362 6.36056 37.3037 5.95245 37.1869C5.107 36.9827 4.52395 36.8368 4.14497 36.6909C3.79514 36.5449 3.47446 36.3115 3.24124 35.9613C3.00802 35.6111 2.86226 35.2609 2.86226 34.8232C2.86226 34.0936 3.15378 33.4807 3.73683 33.0138C4.31988 32.5469 5.107 32.3135 6.09819 32.3135C7.0019 32.3135 7.78905 32.4886 8.43039 32.8388C9.07174 33.1597 9.47985 33.5975 9.65478 34.1228Z" fill="blue"/>
<path d="M24.9603 32.459L21.5203 39.7546C21.0247 40.8344 20.4999 41.5056 19.9752 41.7974C19.4505 42.0892 18.8091 42.2351 18.0803 42.2351C17.7013 42.2351 17.3223 42.2059 16.9434 42.1184V40.1923C17.5556 40.2507 17.9929 40.2799 18.2844 40.2799C19.0132 40.2799 19.3922 40.0756 19.3922 39.6962C19.3922 39.6087 19.363 39.4336 19.3047 39.2293L17.5556 32.4882H20.4125L21.0247 35.3772C21.1413 35.8734 21.1996 36.1652 21.1996 36.3111C21.2579 36.2235 21.2871 36.1068 21.3745 35.9609C21.4328 35.815 21.4911 35.6982 21.5495 35.5523L22.9779 32.5173H24.9603V32.459Z" fill="blue"/>
<path d="M38.8945 34.1228L36.7664 34.5897C36.5915 34.1228 36.1542 33.8893 35.4254 33.8893C34.9298 33.8893 34.6674 34.0353 34.6674 34.3271C34.6674 34.5897 34.9007 34.7356 35.3963 34.8232C36.3874 34.9983 37.0871 35.1733 37.4952 35.3776C37.9033 35.5819 38.2241 35.8445 38.4281 36.1655C38.6322 36.4866 38.7488 36.8368 38.7488 37.2453C38.7488 37.9749 38.4573 38.5877 37.8451 39.0838C37.2329 39.5799 36.3291 39.8134 35.0756 39.8134C34.1718 39.8134 33.3556 39.6383 32.6851 39.2881C32.0146 38.9379 31.5773 38.3834 31.4023 37.683L33.6471 37.362C33.822 37.8873 34.3176 38.1499 35.163 38.1499C35.4837 38.1499 35.7169 38.0916 35.8918 38.004C36.0376 37.9165 36.1251 37.7998 36.1251 37.683C36.1251 37.5663 36.0667 37.4788 35.9793 37.4204C35.8627 37.362 35.6003 37.3037 35.1922 37.1869C34.3468 36.9827 33.7637 36.8368 33.3847 36.6909C33.0349 36.5449 32.7142 36.3115 32.481 35.9613C32.2478 35.6111 32.102 35.2609 32.102 34.8232C32.102 34.0936 32.3935 33.4807 32.9766 33.0138C33.5596 32.5469 34.3468 32.3135 35.338 32.3135C36.2417 32.3135 37.0288 32.4886 37.6702 32.8388C38.3115 33.1597 38.7196 33.5975 38.8945 34.1228Z" fill="blue"/>
<path d="M52.0699 32.4571L51.7492 34.2956H50.4374L50.0001 36.8636C49.9709 37.1263 49.9418 37.2722 49.9418 37.3306C49.9418 37.6808 50.175 37.8559 50.6123 37.8559C50.8163 37.8559 51.0204 37.8267 51.2828 37.7683L50.9621 39.636C50.4374 39.7527 49.9709 39.8111 49.4753 39.8111C48.8923 39.8111 48.455 39.7236 48.1635 39.5776C47.8719 39.4317 47.6387 39.2274 47.4638 38.9648C47.2889 38.7021 47.2015 38.352 47.2015 37.8851C47.2015 37.71 47.2306 37.3598 47.3181 36.8345L47.7553 34.2664H46.7642L47.0557 32.4279H48.0469L48.455 30.2976L51.0496 30.2393L50.6706 32.4279H52.0699V32.4571Z" fill="blue"/>
<path d="M67.1462 36.5738H62.1902C62.1607 36.7781 62.1607 36.9241 62.1607 37.0116C62.1607 37.3326 62.2485 37.5661 62.4525 37.7412C62.6565 37.9163 62.9189 38.0038 63.2107 38.0038C63.7933 38.0038 64.2018 37.712 64.4347 37.0992L66.8544 37.4785C66.5336 38.1789 66.0384 38.7625 65.3385 39.2003C64.6387 39.638 63.8516 39.8423 63.0062 39.8423C61.9278 39.8423 61.0529 39.5505 60.412 38.9376C59.7411 38.3248 59.4209 37.5077 59.4209 36.4279C59.4209 35.2898 59.8289 34.2977 60.616 33.4805C61.4031 32.6634 62.4231 32.2549 63.706 32.2549C64.7849 32.2549 65.6304 32.5759 66.2713 33.2179C66.9127 33.8599 67.2334 34.7062 67.2334 35.7568C67.2334 35.9902 67.2045 36.282 67.1462 36.5738ZM64.5514 35.2023C64.5804 35.0564 64.5809 34.9397 64.5809 34.8521C64.5809 34.5895 64.4931 34.3852 64.3474 34.1809C64.2018 33.9766 63.9683 33.8891 63.6771 33.8891C63.3853 33.8891 63.094 34.0058 62.8605 34.2392C62.6276 34.4727 62.4525 34.7938 62.3942 35.2023H64.5514Z" fill="blue"/>
<path d="M76.2428 32.4592H78.6919L78.5168 33.5681C79.0415 32.6926 79.7997 32.2549 80.7324 32.2549C81.6362 32.2549 82.2482 32.6926 82.569 33.5681C83.0353 32.7218 83.7646 32.2841 84.7262 32.2841C85.3677 32.2841 85.8635 32.4592 86.2426 32.8093C86.6211 33.1595 86.8251 33.6556 86.8251 34.2685C86.8251 34.4728 86.7962 34.7062 86.7673 34.9688L85.9802 39.638H83.2399L83.9686 35.3774C83.9975 35.1731 84.027 34.998 84.027 34.8813C84.027 34.4728 83.823 34.2685 83.4439 34.2685C83.2104 34.2685 83.0064 34.356 82.8608 34.5311C82.7151 34.7062 82.5984 35.0564 82.5106 35.5525L81.8113 39.6672H79.1582L79.887 35.4066C79.9164 35.1439 79.9453 34.9688 79.9453 34.8521C79.9453 34.6478 79.887 34.4728 79.7702 34.3852C79.6541 34.2976 79.5079 34.2392 79.3917 34.2392C79.2455 34.2392 79.0999 34.2977 78.8959 34.4144C78.6919 34.5311 78.5462 34.8521 78.4584 35.4066L77.7297 39.6672H75.0771L76.2428 32.4592Z" fill="blue"/>
<path d="M102.102 39.6372H99.2739C99.2739 39.4913 99.2445 39.3745 99.2445 39.3162C99.2445 39.0827 99.2739 38.7909 99.3029 38.4699C98.7492 39.3745 97.9621 39.8415 96.9416 39.8415C96.2712 39.8415 95.717 39.6372 95.2801 39.2578C94.8716 38.8493 94.6387 38.3824 94.6387 37.7695C94.6387 37.3318 94.7554 36.9232 94.9883 36.5439C95.2218 36.1645 95.5425 35.8727 95.9505 35.6683C96.3585 35.4641 96.7959 35.3182 97.2334 35.2306C97.6703 35.1723 98.5158 35.0555 99.7987 34.9388C99.857 34.7637 99.8859 34.6178 99.8859 34.5303C99.8859 34.1217 99.6236 33.9466 99.0699 33.9466C98.5158 33.9466 98.1367 34.2093 97.8743 34.7637L95.5425 34.2968C96.1256 32.9544 97.4374 32.2832 99.449 32.2832C100.469 32.2832 101.256 32.4583 101.869 32.8085C102.481 33.1587 102.743 33.6839 102.743 34.3843C102.743 34.7053 102.568 35.7851 102.218 37.6528C102.102 38.3532 102.014 38.8201 102.014 39.0535C102.014 39.1995 102.043 39.4037 102.102 39.6372ZM99.5652 36.2229C98.2534 36.3104 97.6119 36.7481 97.6119 37.4777C97.6119 37.8862 97.8165 38.0905 98.2534 38.0905C98.5158 38.0905 98.8076 37.9738 99.0699 37.7403C99.3029 37.4777 99.4779 36.9816 99.5652 36.2229Z" fill="blue"/>
<path d="M116.035 32.4571L115.714 34.2956H114.403L113.965 36.8636C113.936 37.1263 113.907 37.2722 113.907 37.3306C113.907 37.6808 114.14 37.8559 114.578 37.8559C114.782 37.8559 114.986 37.8267 115.248 37.7683L114.927 39.636C114.403 39.7527 113.936 39.8111 113.44 39.8111C112.857 39.8111 112.42 39.7236 112.129 39.5776C111.837 39.4317 111.604 39.2274 111.429 38.9648C111.254 38.7021 111.167 38.352 111.167 37.8851C111.167 37.71 111.196 37.3598 111.283 36.8345L111.721 34.2664H110.729L111.021 32.4279H112.012L112.42 30.2976L115.015 30.2393L114.636 32.4279H116.035V32.4571Z" fill="blue"/>
<path d="M127.198 32.4579L126.003 39.6659H123.205L124.4 32.4579H127.198ZM127.665 29.6855L127.315 31.8159H124.516L124.866 29.6855H127.665Z" fill="blue"/>
<path d="M139.675 36.8656L141.832 37.3909C141.453 38.3247 140.928 38.9667 140.316 39.3169C139.675 39.6671 139.033 39.8422 138.363 39.8422C137.372 39.8422 136.555 39.5212 135.943 38.9084C135.302 38.2663 135.011 37.4784 135.011 36.4862C135.011 35.3481 135.389 34.3559 136.118 33.5096C136.847 32.6341 137.838 32.2256 139.063 32.2256C139.937 32.2256 140.695 32.4882 141.307 33.0135C141.919 33.5388 142.24 34.2392 142.24 35.0855L139.792 35.3773C139.792 34.5894 139.529 34.21 139.005 34.21C138.567 34.21 138.246 34.531 138.042 35.173C137.838 35.815 137.751 36.3695 137.751 36.8364C137.751 37.5368 138.013 37.887 138.538 37.887C139.063 37.8578 139.441 37.5368 139.675 36.8656Z" fill="blue"/>
<path d="M156.877 34.1228L154.748 34.5897C154.574 34.1228 154.136 33.8893 153.408 33.8893C152.912 33.8893 152.649 34.0353 152.649 34.3271C152.649 34.5897 152.883 34.7356 153.378 34.8232C154.369 34.9983 155.069 35.1733 155.477 35.3776C155.886 35.5819 156.206 35.8445 156.41 36.1655C156.614 36.4866 156.731 36.8368 156.731 37.2453C156.731 37.9749 156.439 38.5877 155.827 39.0838C155.215 39.5799 154.311 39.8134 153.057 39.8134C152.154 39.8134 151.338 39.6383 150.667 39.2881C149.996 38.9379 149.559 38.3834 149.384 37.683L151.629 37.362C151.804 37.8873 152.3 38.1499 153.145 38.1499C153.466 38.1499 153.699 38.0916 153.874 38.004C154.02 37.9165 154.107 37.7998 154.107 37.683C154.107 37.5663 154.049 37.4788 153.961 37.4204C153.844 37.362 153.582 37.3037 153.174 37.1869C152.329 36.9827 151.746 36.8368 151.366 36.6909C151.017 36.5449 150.696 36.3115 150.463 35.9613C150.201 35.6403 150.084 35.2609 150.084 34.8232C150.084 34.0936 150.375 33.4807 150.958 33.0138C151.542 32.5469 152.329 32.3135 153.32 32.3135C154.224 32.3135 155.011 32.4886 155.652 32.8388C156.294 33.1597 156.702 33.5975 156.877 34.1228Z" fill="blue"/>
<path d="M11.4569 17.4066L16.6752 18.0778C16.063 20.2081 15.0135 21.9591 13.5559 23.3014C12.0691 24.673 10.2034 25.3442 7.95862 25.3442C5.5098 25.3442 3.58576 24.5271 2.15729 22.8637C0.728815 21.2003 0 19.07 0 16.4728C0 13.4669 0.874576 10.8113 2.65288 8.50593C4.43118 6.20051 6.87998 5.0332 9.97015 5.0332C12.2149 5.0332 14.0515 5.73359 15.4508 7.10516C16.8501 8.50592 17.579 10.3152 17.579 12.5915L12.0983 13C12.0691 11.8036 11.8942 10.8989 11.5444 10.3152C11.1946 9.73159 10.6115 9.43976 9.76609 9.43976C8.3376 9.43976 7.34645 10.5195 6.82167 12.6498C6.29695 14.7802 6.03458 16.4728 6.03458 17.6984C6.03458 19.6828 6.82167 20.7042 8.36678 20.7042C9.12475 20.7042 9.76609 20.4415 10.2325 19.9455C10.699 19.391 11.1071 18.5447 11.4569 17.4066Z" fill="blue"/>
<path d="M32.6751 10.5156L25.8243 25.1069C24.804 27.2372 23.7836 28.6088 22.7341 29.1925C21.6846 29.7761 20.4311 30.0679 18.9443 30.0679C18.2155 30.0679 17.4575 29.9804 16.6704 29.8345V25.9824C17.8657 26.0991 18.7694 26.1575 19.3816 26.1575C20.8684 26.1575 21.5972 25.7489 21.5972 24.961C21.5972 24.7567 21.5389 24.4357 21.4222 24.0271L17.9531 10.5448H23.667L24.8914 16.323C25.1246 17.3152 25.2412 17.928 25.2412 18.1615C25.3287 17.9864 25.4453 17.7529 25.5619 17.4319C25.6494 17.1692 25.766 16.8774 25.9117 16.6148L28.7687 10.5448H32.6751V10.5156Z" fill="blue"/>
<path d="M40.4326 5.4668L39.2957 12.3247C40.0536 11.42 40.7241 10.8364 41.3071 10.5446C41.8902 10.2527 42.5607 10.1068 43.2895 10.1068C44.6597 10.1068 45.7967 10.6029 46.6129 11.5951C47.4583 12.5873 47.8664 14.0172 47.8664 15.9433C47.8664 18.3071 47.196 20.4374 45.8841 22.3635C44.5722 24.2895 42.7356 25.2525 40.4034 25.2525C38.1878 25.2525 36.6428 24.3479 35.7682 22.5094L34.1648 24.9315H31.6577L34.8936 5.4668H40.4326ZM38.0129 19.883C38.0129 20.4082 38.0421 20.7876 38.1295 20.9919C38.217 21.1961 38.3628 21.3712 38.6251 21.5755C38.8875 21.7506 39.2082 21.8382 39.5872 21.8382C40.0828 21.8382 40.4909 21.6923 40.8407 21.3712C41.1906 21.0502 41.5112 20.3499 41.8319 19.2409C42.1526 18.1612 42.2983 16.9939 42.2983 15.739C42.2983 14.3091 41.8027 13.5795 40.7824 13.5795C39.8204 13.5795 39.1207 14.3091 38.6834 15.7682L38.0129 19.883Z" fill="blue"/>
<path d="M64.5414 18.7721H54.6299C54.5715 19.1514 54.5715 19.4432 54.5715 19.6475C54.5715 20.2895 54.7755 20.7564 55.1835 21.1358C55.5921 21.486 56.0874 21.6611 56.6994 21.6611C57.8655 21.6611 58.6821 21.0483 59.1774 19.8518L64.0166 20.6397C63.4046 22.0405 62.3841 23.1786 60.985 24.0541C59.5859 24.9295 58.0406 25.3673 56.3208 25.3673C54.1633 25.3673 52.4433 24.7544 51.1023 23.5288C49.7613 22.3031 49.0908 20.6397 49.0908 18.5386C49.0908 16.2624 49.878 14.2779 51.4521 12.6437C53.0264 11.0095 55.0963 10.1924 57.6326 10.1924C59.7899 10.1924 61.5097 10.8344 62.7926 12.0893C64.075 13.3733 64.7165 15.0367 64.7165 17.167C64.7165 17.6047 64.6581 18.1592 64.5414 18.7721ZM59.3819 15.9997C59.4397 15.7079 59.4397 15.4744 59.4397 15.3285C59.4397 14.8032 59.2941 14.3655 58.9734 13.9861C58.6526 13.6067 58.2157 13.4024 57.6326 13.4024C57.0201 13.4024 56.4665 13.6359 55.9706 14.1028C55.4754 14.5698 55.1835 15.2118 55.0668 15.9997H59.3819Z" fill="blue"/>
<path d="M68.1557 10.5178H72.9366L72.3536 13.9905C73.3452 11.3933 74.8899 10.0801 76.9305 10.0801C77.1055 10.0801 77.3096 10.1093 77.6014 10.1384L76.9599 15.2746C76.4641 15.2454 76.1434 15.2454 75.9688 15.2454C74.7732 15.2454 73.8988 15.5372 73.3452 16.0917C72.791 16.6461 72.383 17.6383 72.1495 19.0391L71.1585 24.9048H65.6777L68.1557 10.5178Z" fill="blue"/>
<path d="M77.3398 24.9013L80.576 5.43652H88.5926C90.0506 5.43652 91.2457 5.55325 92.1784 5.81589C93.1111 6.07853 93.8988 6.60382 94.5108 7.42093C95.1522 8.23804 95.4435 9.17188 95.4435 10.2516C95.4435 11.4481 95.0644 12.4403 94.3068 13.2866C93.5486 14.1037 92.5575 14.6873 91.2746 14.95C93.4029 15.7088 94.4813 17.1095 94.4813 19.1815C94.4813 20.699 93.9566 22.0121 92.9655 23.1503C91.9455 24.2884 90.2546 24.8721 87.8638 24.8721H77.3398V24.9013ZM83.6949 20.6114H86.6104C87.5142 20.6114 88.1262 20.4071 88.4764 20.0278C88.826 19.6484 89.0011 19.2398 89.0011 18.8021C89.0011 18.2476 88.826 17.8099 88.4469 17.4597C88.0678 17.1095 87.5142 16.9636 86.7855 16.9636H84.3364L83.6949 20.6114ZM84.9778 12.8781H87.1935C88.9717 12.8781 89.8466 12.2944 89.8466 11.0979C89.8466 10.0765 89.1468 9.55125 87.7471 9.55125H85.5315L84.9778 12.8781Z" fill="blue"/>
<path d="M103.985 10.5155L101.565 24.9024H95.9678L98.3874 10.5155H103.985ZM104.889 5L104.189 9.23146H98.592L99.2912 5H104.889Z" fill="blue"/>
<path d="M112.06 25.3381C110.049 25.3381 108.387 24.7544 107.017 23.558C105.647 22.3615 104.977 20.7272 104.977 18.6845C104.977 16.204 105.764 14.1612 107.338 12.5853C108.912 10.9803 110.924 10.1924 113.314 10.1924C115.53 10.1924 117.279 10.8052 118.562 12.0601C119.845 13.3149 120.515 14.8616 120.515 16.6709C120.515 19.3849 119.669 21.5152 118.008 23.0618C116.346 24.5793 114.364 25.3381 112.06 25.3381ZM112.294 21.8362C113.285 21.8362 113.955 21.1067 114.334 19.6183C114.713 18.13 114.859 16.9044 114.859 15.9121C114.859 14.3947 114.305 13.6359 113.198 13.6359C112.207 13.6359 111.536 14.3947 111.157 15.9121C110.778 17.4296 110.603 18.6553 110.603 19.6183C110.603 21.0775 111.186 21.8362 112.294 21.8362Z" fill="blue"/>
<path d="M123.924 10.5178H128.938L128.559 12.8524C128.938 11.8894 129.579 11.189 130.454 10.7513C131.329 10.3135 132.261 10.0801 133.253 10.0801C134.477 10.0801 135.469 10.4011 136.226 11.0431C136.984 11.6851 137.363 12.5314 137.363 13.582C137.363 13.9905 137.305 14.4867 137.217 15.0411L135.585 24.8756H130.104L131.562 16.2376C131.649 15.6831 131.708 15.3329 131.708 15.1287C131.708 14.3115 131.27 13.903 130.425 13.903C129.288 13.903 128.588 14.6617 128.326 16.2084L126.868 24.8464H121.504L123.924 10.5178Z" fill="blue"/>
<path d="M146.543 10.5155L144.124 24.9024H138.526L140.946 10.5155H146.543ZM147.476 5L146.776 9.23146H141.179L141.879 5H147.476Z" fill="blue"/>
<path d="M156.928 19.3289L161.272 20.4086C160.485 22.2763 159.465 23.5603 158.211 24.2899C156.957 25.0194 155.645 25.3696 154.305 25.3696C152.322 25.3696 150.689 24.7276 149.436 23.4727C148.182 22.2179 147.541 20.5837 147.541 18.6284C147.541 16.3814 148.27 14.397 149.757 12.6461C151.244 10.9243 153.197 10.0488 155.645 10.0488C157.424 10.0488 158.91 10.5741 160.164 11.6539C161.418 12.7336 162.001 14.1052 162.001 15.7686L157.132 16.3523C157.132 14.8056 156.608 14.0177 155.558 14.0177C154.654 14.0177 154.013 14.6597 153.634 15.9437C153.255 17.2277 153.051 18.3366 153.051 19.2705C153.051 20.6712 153.576 21.3716 154.654 21.3716C155.704 21.3425 156.462 20.6712 156.928 19.3289Z" fill="blue"/>
</g>
</svg>